<svg width="16" height="16" viewBox="0 0 16 16" fill="none" xmlns="http://www.w3.org/2000/svg">
<path d="M10.25 5C10.6642 5 11 4.66421 11 4.25C11 3.83579 10.6642 3.5 10.25 3.5C9.83579 3.5 9.5 3.83579 9.5 4.25C9.5 4.66421 9.83579 5 10.25 5Z" fill="black"/>
<path d="M7.5 8.5L5 11.5" stroke="black" stroke-linecap="round" stroke-linejoin="round"/>
<path d="M13 6V7.5C13 9.0913 12.3679 10.6174 11.2426 11.7426C10.1174 12.8679 8.5913 13.5 7 13.5H0.5L6.5 6V4.75C6.49943 3.95918 6.78723 3.19527 7.30948 2.60142C7.83172 2.00756 8.55258 1.6245 9.337 1.52401C10.1214 1.42351 10.9156 1.61248 11.5707 2.0555C12.2257 2.49852 12.6968 3.1652 12.8956 3.93063L14.5 5L13 6Z" stroke="black" stroke-linecap="round" stroke-linejoin="round"/>
</svg>
