<?xml version="1.0" standalone="no"?>
<!DOCTYPE svg PUBLIC "-//W3C//DTD SVG 20010904//EN"
 "http://www.w3.org/TR/2001/REC-SVG-20010904/DTD/svg10.dtd">
<svg version="1.0" xmlns="http://www.w3.org/2000/svg"
 width="768.000000pt" height="768.000000pt" viewBox="0 0 768.000000 768.000000"
 preserveAspectRatio="xMidYMid meet">

<g transform="translate(0.000000,768.000000) scale(0.100000,-0.100000)"
fill="#000000" stroke="none">
<path d="M3703 6973 c-7 -6 12 -15 52 -27 60 -17 105 -45 105 -66 0 -13 -10
-13 -60 5 -65 23 -209 43 -267 38 -92 -9 -63 -25 71 -39 46 -5 71 -13 91 -30
36 -31 25 -47 -23 -30 -20 7 -66 14 -102 15 -35 2 -67 4 -70 6 -3 2 -21 0 -40
-5 -30 -7 -31 -8 -9 -9 42 -2 89 -13 89 -21 0 -4 -51 -10 -112 -13 -84 -4
-138 -13 -208 -35 -114 -34 -148 -51 -130 -62 8 -5 2 -10 -19 -15 -29 -6 -31
-8 -14 -20 15 -12 11 -16 -47 -42 -62 -28 -129 -84 -151 -124 -13 -25 -10 -24
64 16 64 35 97 44 97 25 0 -5 -4 -10 -8 -10 -5 0 -47 -37 -94 -82 -83 -81
-168 -193 -168 -221 0 -8 -7 -20 -15 -27 -9 -7 -14 -18 -12 -24 2 -6 -9 -31
-24 -55 -31 -49 -64 -139 -55 -148 3 -4 23 13 44 37 49 58 94 101 100 96 2 -3
-7 -33 -21 -68 -23 -59 -35 -95 -87 -272 -43 -146 -19 -142 57 10 61 123 77
129 44 17 -25 -86 -48 -215 -57 -318 -3 -44 -12 -114 -20 -155 -8 -41 -14 -76
-14 -78 0 -2 5 0 11 4 17 10 5 -91 -25 -220 l-26 -110 24 -25 c25 -27 43 -71
29 -71 -15 0 -31 -48 -20 -59 8 -8 7 -11 -2 -11 -10 0 -12 -10 -7 -39 8 -54
-2 -99 -26 -107 -27 -8 -34 3 -15 24 11 11 13 22 7 32 -7 12 -12 11 -29 -4
-11 -10 -23 -27 -26 -36 -8 -25 -43 -32 -54 -12 -4 10 -6 23 -4 30 6 17 -13
15 -42 -4 -23 -15 -25 -15 -32 2 -3 9 1 39 10 65 22 61 21 66 -5 42 -28 -25
-81 -36 -97 -20 -10 10 -16 0 -13 -24 1 -4 -9 -18 -21 -31 -38 -41 -59 -78
-45 -78 7 0 19 9 26 20 7 11 21 20 32 20 17 0 19 -5 16 -27 -9 -45 -106 -131
-106 -93 0 18 -19 10 -25 -11 -5 -14 -2 -25 6 -30 11 -6 11 -11 1 -21 -9 -9
-12 -9 -12 1 0 26 -19 -2 -35 -52 -10 -28 -23 -61 -30 -72 -12 -19 -63 -176
-91 -280 -66 -245 -110 -437 -171 -750 -8 -44 -19 -172 -23 -285 -23 -561 -23
-550 -6 -703 16 -140 29 -197 47 -197 4 0 9 6 12 13 6 19 34 -43 53 -118 17
-68 54 -125 81 -125 23 0 9 -31 -88 -196 -49 -84 -89 -154 -89 -156 0 -3 -28
-47 -61 -99 -34 -51 -78 -127 -97 -168 -56 -117 -48 -214 20 -242 24 -10 35
-9 68 6 21 10 47 25 57 34 10 9 34 27 53 40 19 13 47 36 63 49 l27 26 0 -70
c0 -77 9 -94 51 -94 22 0 39 15 86 72 32 39 63 73 69 75 7 2 20 -18 30 -44 26
-72 39 -83 97 -83 42 0 53 4 78 31 36 39 85 140 134 279 49 137 112 282 127
291 15 10 42 -4 100 -52 48 -40 98 -52 98 -24 0 8 5 15 10 15 6 0 10 -1 10 -3
0 -1 16 -41 36 -87 47 -111 62 -169 70 -263 9 -103 -2 -117 -95 -117 -103 -1
-164 -36 -186 -108 -5 -17 1 -30 28 -57 32 -32 40 -35 94 -35 32 -1 78 -5 103
-11 25 -5 101 -13 170 -18 110 -9 190 -17 545 -61 44 -5 127 -16 185 -24 235
-32 302 -38 314 -26 6 6 13 37 16 68 l5 57 55 3 c30 2 73 -2 95 -8 22 -5 92
-17 155 -25 107 -14 119 -17 172 -55 52 -37 61 -40 100 -34 24 4 53 16 65 27
17 15 30 18 55 13 91 -18 124 -18 137 -2 37 45 -43 137 -136 156 -32 7 -70 19
-85 26 -15 8 -56 14 -91 14 -45 0 -68 5 -77 15 -11 13 -8 15 18 15 27 0 31 4
37 39 8 47 -9 117 -31 125 -28 11 -109 6 -134 -9 -33 -19 -102 -19 -147 0 -26
11 -63 15 -126 13 l-89 -3 -37 41 c-49 56 -77 116 -114 242 -23 82 -30 126
-30 189 1 69 -1 81 -14 76 -11 -4 -14 0 -11 13 2 10 8 19 15 19 6 0 21 14 34
30 12 17 37 46 55 65 18 19 56 81 84 138 30 61 73 127 104 162 55 62 100 125
157 223 l33 57 11 -37 10 -37 22 27 c14 18 29 26 44 25 28 -4 49 31 120 200
42 100 54 119 63 106 15 -19 37 -11 60 24 l17 27 -5 -32 c-7 -43 5 -48 36 -15
76 82 120 201 178 490 84 421 79 734 -16 1055 -48 165 -164 361 -259 440 -38
31 -105 62 -105 48 0 -5 6 -11 13 -14 6 -2 10 -7 7 -9 -3 -3 -16 -1 -30 4 -20
7 -22 11 -10 18 23 14 9 19 -68 26 -63 6 -75 10 -91 33 -18 25 -41 86 -55 146
-7 29 -7 29 12 12 18 -17 17 -9 -10 90 -69 252 -79 292 -92 373 -13 83 -13 86
8 108 22 24 24 44 25 264 l1 56 68 45 c160 105 649 359 764 396 20 7 42 19 49
27 32 39 -49 108 -209 179 -198 87 -419 135 -621 135 l-117 0 -12 46 c-14 52
-71 118 -95 109 -17 -7 -83 30 -91 52 -4 10 -14 13 -30 9 -16 -4 -34 3 -62 24
-21 16 -49 30 -62 30 -12 0 -40 9 -60 19 -43 22 -121 35 -139 24z m-250 -230
c-7 -2 -19 -2 -25 0 -7 3 -2 5 12 5 14 0 19 -2 13 -5z m1267 -158 c119 -27
243 -66 295 -93 54 -27 119 -76 107 -80 -6 -2 -44 6 -84 17 -164 46 -342 57
-593 36 -195 -16 -466 -21 -485 -10 -16 10 -12 40 8 57 31 28 97 56 178 77
116 29 124 30 299 26 129 -3 182 -8 275 -30z m-946 -55 c33 -12 75 -37 94 -55
30 -27 36 -40 40 -86 4 -56 -2 -85 -36 -176 -32 -83 -74 -128 -155 -167 -93
-44 -153 -55 -270 -46 -126 10 -221 42 -271 92 -37 37 -38 40 -33 88 18 151
166 305 352 367 60 20 206 11 279 -17z m-520 -11 c-23 -26 -54 -43 -54 -30 0
8 58 50 69 51 2 0 -4 -9 -15 -21z m261 -560 c13 -20 -32 -48 -89 -54 -31 -4
-61 -3 -68 2 -13 8 -18 9 -38 12 -5 0 -10 7 -10 15 0 24 192 48 205 25z m154
-638 c6 -10 8 -20 6 -23 -3 -3 4 -13 15 -23 14 -13 20 -14 20 -5 0 9 6 8 20
-5 11 -10 17 -22 14 -27 -3 -5 -3 -16 0 -25 6 -14 8 -14 26 2 10 9 23 14 29
11 5 -3 11 0 14 6 3 10 10 8 25 -5 13 -12 28 -16 41 -12 13 4 21 2 21 -5 0 -8
10 -10 26 -7 19 3 29 -1 40 -19 9 -12 27 -30 41 -39 22 -15 26 -15 42 -1 15
14 19 11 43 -32 14 -26 29 -62 33 -79 6 -28 9 -31 25 -23 28 15 28 14 56 -45
15 -30 29 -55 33 -55 8 0 64 -74 95 -124 23 -39 91 -193 100 -229 8 -33 0 -34
-31 -5 -42 39 -24 1 22 -46 25 -26 54 -66 66 -89 28 -55 68 -109 78 -103 4 3
7 32 6 66 -2 33 1 60 5 60 42 0 165 -304 160 -394 -1 -23 -1 -52 0 -66 1 -14
2 -81 1 -150 0 -111 -3 -134 -25 -194 -14 -38 -26 -81 -26 -97 0 -15 -5 -40
-11 -56 -7 -15 -15 -48 -19 -73 -16 -93 -39 -183 -50 -190 -6 -3 -13 -30 -17
-58 -3 -29 -9 -52 -13 -52 -4 0 -8 -10 -8 -22 0 -34 -21 -108 -31 -108 -5 0
-11 -16 -14 -36 -3 -20 -14 -45 -23 -55 -9 -11 -13 -19 -8 -19 5 0 3 -4 -4 -9
-8 -5 -15 -20 -15 -35 -1 -14 -5 -26 -9 -26 -5 0 -8 -6 -8 -13 0 -7 -8 -22
-18 -33 -10 -10 -16 -26 -14 -35 3 -17 -14 -35 -37 -41 -20 -4 -57 -41 -53
-52 2 -5 -1 -12 -6 -15 -5 -3 -21 -28 -35 -56 -26 -52 -137 -167 -179 -185
-24 -12 -29 -14 -125 -73 -49 -30 -75 -39 -128 -44 -41 -4 -69 -11 -72 -19 -9
-23 -165 -38 -516 -49 -55 -2 -101 -6 -105 -9 -3 -3 -14 -6 -24 -6 -11 0 -38
-8 -61 -19 -23 -10 -50 -21 -60 -24 -17 -6 -17 -8 0 -34 9 -16 29 -43 43 -62
22 -31 25 -44 24 -122 0 -75 -3 -92 -24 -123 -14 -19 -34 -37 -46 -40 -12 -3
-24 -15 -27 -27 -6 -22 -6 -21 -38 5 -22 19 -39 26 -54 22 -17 -4 -31 5 -64
45 -89 103 -119 161 -127 239 -5 55 -4 58 33 93 20 21 43 37 50 37 22 0 14 27
-12 44 -33 21 -79 67 -99 98 -18 28 -22 41 -36 142 -6 38 -15 75 -21 82 -7 8
-7 14 1 19 7 4 8 11 1 18 -10 13 -12 107 -1 107 3 0 7 16 8 35 2 20 8 48 14
63 6 15 12 38 14 52 3 29 23 104 37 140 6 15 40 167 42 185 1 6 5 30 9 54 5
24 10 58 11 75 2 17 8 74 14 126 6 52 13 115 15 140 3 25 9 77 15 115 5 39 10
98 10 133 0 35 7 98 15 140 8 42 22 133 31 201 8 68 20 131 25 141 6 10 10 32
10 49 0 23 10 41 40 70 44 43 51 58 19 40 -20 -10 -21 -9 -14 23 4 18 12 44
18 58 l11 25 4 -23 c3 -18 8 -23 24 -19 19 5 20 3 14 -46 -6 -46 -5 -50 7 -32
7 11 23 47 35 80 12 33 30 78 41 100 23 48 19 57 -9 24 -12 -13 -19 -17 -16
-9 26 78 37 123 32 136 -3 7 -1 14 4 14 6 0 9 3 9 8 -1 4 0 9 1 12 6 16 11 48
11 71 0 26 33 67 54 68 6 1 10 4 10 9 0 12 31 52 37 47 3 -3 11 8 18 25 16 39
4 52 -21 22 -10 -13 -22 -21 -27 -18 -4 2 -20 -8 -34 -23 -28 -29 -58 -37 -58
-14 0 16 45 107 71 145 11 14 19 34 19 43 0 23 24 13 26 -11 2 -45 4 -57 10
-51 3 3 5 8 4 12 0 3 6 13 15 21 17 18 19 42 5 98 -5 24 -5 46 0 55 5 9 10 11
10 6 0 -10 46 -13 60 -5 3 2 10 4 15 5 6 1 18 5 28 10 10 4 20 5 23 2 7 -7
-13 -46 -39 -74 -17 -19 -18 -25 -7 -38 11 -13 10 -19 -4 -33 -32 -36 -7 -46
30 -11 l22 21 7 -21 c11 -34 21 -24 21 22 1 75 8 108 25 117 9 5 20 6 24 2 5
-4 6 -2 3 3 -7 12 11 29 36 33 18 3 18 2 5 -14 -7 -10 -9 -15 -2 -11 14 9 73
-24 73 -40 0 -29 17 -10 34 37 19 54 30 61 45 31z m-1259 -631 c0 -5 -2 -10
-4 -10 -3 0 -8 5 -11 10 -3 6 -1 10 4 10 6 0 11 -4 11 -10z m2354 -62 c-3 -4
-9 -8 -15 -8 -5 0 -9 4 -9 8 0 5 7 9 15 9 8 0 12 -4 9 -9z m-1021 -2910 c62
-93 66 -100 101 -213 45 -147 70 -284 54 -300 -3 -3 -48 -7 -99 -9 -90 -3
-139 -16 -139 -36 0 -21 -41 -8 -67 21 -57 64 -132 78 -174 34 -27 -27 -113
-51 -150 -41 -50 13 -112 140 -166 338 -3 12 4 19 24 24 15 4 40 13 54 20 26
13 28 11 93 -61 37 -41 88 -89 113 -107 45 -30 146 -68 183 -68 50 0 65 73 33
165 -9 27 -51 95 -95 152 -43 57 -78 108 -78 113 0 9 12 12 135 31 38 5 71 12
74 15 2 2 14 4 27 4 17 0 36 -20 77 -82z"/>
<path d="M3566 6479 c-35 -21 -76 -74 -87 -114 -16 -58 -7 -159 17 -192 37
-49 69 -66 131 -69 53 -3 55 -2 15 5 -23 4 -48 13 -54 19 -19 19 7 37 46 34
67 -6 146 53 146 110 0 9 5 20 11 24 12 7 29 -14 41 -51 4 -13 6 -5 7 23 2 83
-52 168 -129 201 -53 23 -114 27 -144 10z m34 -68 c16 -30 12 -46 -16 -75 -48
-47 -102 -26 -89 34 11 50 84 79 105 41z"/>
<path d="M3140 4715 c-8 -9 -8 -15 -2 -15 12 0 26 19 19 26 -2 2 -10 -2 -17
-11z"/>
<path d="M3166 4479 c-20 -41 -21 -39 9 -39 22 0 24 3 18 33 -8 43 -8 43 -27
6z"/>
</g>
</svg>
